<svg width="9" height="13" viewBox="0 0 9 13" fill="none" xmlns="http://www.w3.org/2000/svg">
<path d="M8.32435 0.345381L6.44894 0.34082C4.34109 0.34082 2.97283 1.54935 2.97283 3.41916L2.97283 4.83748H1.08685C0.923087 4.83748 0.791016 4.95149 0.791016 5.09287L0.791016 7.14965C0.791016 7.29103 0.923087 7.40504 1.08685 7.40504H2.97811L2.97811 12.5903C2.97811 12.7317 3.11018 12.8457 3.27395 12.8457H5.73576C5.89953 12.8457 6.0316 12.7317 6.0316 12.5903L6.0316 7.40048H8.23983C8.4036 7.40048 8.53567 7.28647 8.53567 7.14509V5.08831C8.53567 5.0199 8.50397 4.95605 8.45114 4.90589C8.39831 4.86028 8.31907 4.83292 8.23983 4.83292H6.0316V3.6335C6.0316 3.05432 6.19008 2.76245 7.06175 2.76245L8.32435 2.76245C8.48812 2.76245 8.62019 2.64844 8.62019 2.50706V0.600769C8.62019 0.459393 8.48812 0.345381 8.32435 0.345381Z" fill="white"/>
</svg>
