<svg width="18" height="17" viewBox="0 0 18 17" fill="none" xmlns="http://www.w3.org/2000/svg">
<path d="M12.924 0.206055H5.33503C2.75784 0.206055 0.661133 2.26701 0.661133 4.80012V12.2593C0.661133 14.7925 2.75784 16.8534 5.33503 16.8534H12.924C15.5014 16.8534 17.5981 14.7924 17.5981 12.2593V4.80012C17.5982 2.26701 15.5014 0.206055 12.924 0.206055ZM16.0955 12.2593C16.0955 13.9781 14.6728 15.3764 12.9241 15.3764H5.33503C3.58645 15.3765 2.16386 13.9781 2.16386 12.2593V4.80012C2.16386 3.08144 3.58645 1.68309 5.33503 1.68309H12.924C14.6727 1.68309 16.0954 3.08144 16.0954 4.80012V12.2593H16.0955Z" fill="white" stroke="white" stroke-width="0.25"/>
<path d="M9.12986 4.24023C6.72338 4.24023 4.76562 6.16451 4.76562 8.52983C4.76562 10.8951 6.72338 12.8192 9.12986 12.8192C11.5363 12.8192 13.4941 10.8951 13.4941 8.52983C13.4941 6.16451 11.5363 4.24023 9.12986 4.24023ZM9.12986 11.3421C7.55209 11.3421 6.26836 10.0805 6.26836 8.52974C6.26836 6.97885 7.55199 5.71717 9.12986 5.71717C10.7077 5.71717 11.9914 6.97885 11.9914 8.52974C11.9914 10.0805 10.7076 11.3421 9.12986 11.3421Z" fill="white" stroke="white" stroke-width="0.25"/>
<path d="M13.6748 2.9873C13.3852 2.9873 13.1008 3.10251 12.8963 3.30437C12.6909 3.50525 12.5728 3.7849 12.5728 4.07046C12.5728 4.35514 12.691 4.63469 12.8963 4.83655C13.1007 5.03743 13.3852 5.15362 13.6748 5.15362C13.9653 5.15362 14.2488 5.03743 14.4542 4.83655C14.6595 4.63469 14.7768 4.35504 14.7768 4.07046C14.7768 3.7849 14.6595 3.50525 14.4542 3.30437C14.2498 3.10251 13.9653 2.9873 13.6748 2.9873Z" fill="white" stroke="white" stroke-width="0.25"/>
</svg>
