<svg width="1280" height="262" viewBox="0 0 1280 262" fill="none" xmlns="http://www.w3.org/2000/svg">
<g filter="url(#filter0_d)">
<path d="M1191.86 169.858C1201.89 224 1243.72 240.5 1280 223V32.0003H-9.99622V133C-17.0509 178 54.5037 174 62.566 154.5C74.1559 226 179.472 200.5 168.89 154.5C205.675 169 214.241 139.5 214.241 139.5C260.601 164 275.718 124 275.718 124C290.331 150.5 317.038 128 317.038 128C317.038 128 346.768 165.35 393.128 156C439.487 146.65 448.053 110 448.053 110C448.053 110 495.42 140 530.19 96.5C542.787 104 555.889 99.5 558.912 91C570.609 109.324 605.272 121 629.963 101C629.963 101 651.512 123 680.353 123C712.099 123 724.193 111.5 731.752 101C731.752 101 735.878 108.661 744.349 118C753.42 128 785.669 133.917 801.29 118C803.58 124.834 813.215 140.134 830.517 145.5C847.819 150.866 869.49 141.554 877.884 133.917C902.575 166 985.216 155.5 980.681 105.5C989.751 127.5 1018.45 124.393 1028.75 118.765C1029.9 132.03 1038.13 172.094 1083.7 179.06C1138.91 187.5 1159.06 155 1159.06 155C1159.06 170.5 1178.72 179.06 1191.86 169.858Z" fill="white"/>
</g>
<defs>
<filter id="filter0_d" x="-42.4849" y="0.000305176" width="1354.48" height="261.694" filterUnits="userSpaceOnUse" color-interpolation-filters="sRGB">
<feFlood flood-opacity="0" result="BackgroundImageFix"/>
<feColorMatrix in="SourceAlpha" type="matrix" values="0 0 0 0 0 0 0 0 0 0 0 0 0 0 0 0 0 0 127 0"/>
<feOffset/>
<feGaussianBlur stdDeviation="16"/>
<feColorMatrix type="matrix" values="0 0 0 0 0.894118 0 0 0 0 0.215686 0 0 0 0 0.462745 0 0 0 0.1 0"/>
<feBlend mode="normal" in2="BackgroundImageFix" result="effect1_dropShadow"/>
<feBlend mode="normal" in="SourceGraphic" in2="effect1_dropShadow" result="shape"/>
</filter>
</defs>
</svg>
