<svg width="14" height="11" viewBox="0 0 14 11" fill="none" xmlns="http://www.w3.org/2000/svg">
<path d="M6.87703 10.3045C5.30835 10.3121 3.74077 10.2892 2.17703 10.1372C1.43976 10.0655 0.837139 9.79596 0.519682 9.07802C0.400362 8.80845 0.353838 8.5192 0.319903 8.22995C0.103704 6.3479 0.072506 4.4664 0.396531 2.59364C0.542123 1.74994 1.06702 1.25947 1.91649 1.14027C3.17428 0.96366 4.44301 0.944522 5.7101 0.932493C7.64385 0.913355 9.57705 0.910074 11.5053 1.09653C11.7965 1.12496 12.0871 1.16543 12.3543 1.29064C12.9076 1.54982 13.224 1.99545 13.3307 2.58981C13.5518 3.82392 13.5836 5.07005 13.5502 6.31947C13.5321 7.01225 13.4801 7.70175 13.3805 8.38742C13.2212 9.48374 12.6783 10.013 11.5765 10.1333C10.5059 10.2503 9.42982 10.2793 8.3543 10.3028C7.86224 10.3138 7.36963 10.3045 6.87703 10.3045ZM9.00618 5.61903C7.86662 4.95851 6.76482 4.31931 5.66358 3.68011C5.53386 3.60465 5.51306 3.66699 5.51306 3.78564C5.5147 5.01592 5.51415 6.24565 5.51251 7.47593C5.51251 7.59185 5.53824 7.62793 5.65208 7.56232C6.75333 6.92258 7.85622 6.28447 9.00618 5.61903Z" fill="white"/>
</svg>
